<mxfile host="app.diagrams.net" agent="Mozilla/5.0 (Macintosh; Intel Mac OS X 10_15_7) AppleWebKit/537.36 (KHTML, like Gecko) Chrome/123.0.0.0 Safari/537.36" version="26.0.6">
  <diagram name="Page-1" id="RVjiyUfrUVHAt1luAm2Z">
    <mxGraphModel dx="995" dy="1706" grid="1" gridSize="10" guides="1" tooltips="1" connect="1" arrows="1" fold="1" page="1" pageScale="1" pageWidth="827" pageHeight="1169" math="0" shadow="0">
      <root>
        <mxCell id="0" />
        <mxCell id="1" parent="0" />
        <mxCell id="9XXfqWWZfJPSa1Kgbe5z-13" value="Applicant" style="swimlane;fontStyle=1;align=center;verticalAlign=top;childLayout=stackLayout;horizontal=1;startSize=26;horizontalStack=0;resizeParent=1;resizeParentMax=0;resizeLast=0;collapsible=1;marginBottom=0;whiteSpace=wrap;html=1;" parent="1" vertex="1">
          <mxGeometry x="140" y="240" width="160" height="160" as="geometry">
            <mxRectangle x="290" y="330" width="90" height="30" as="alternateBounds" />
          </mxGeometry>
        </mxCell>
        <mxCell id="9XXfqWWZfJPSa1Kgbe5z-14" value="- applicantId: String&lt;div&gt;&lt;div&gt;- name: String&lt;/div&gt;&lt;div&gt;- email: String&lt;/div&gt;&lt;div&gt;&lt;span style=&quot;background-color: transparent; color: light-dark(rgb(0, 0, 0), rgb(255, 255, 255));&quot;&gt;- phone: String&lt;/span&gt;&lt;/div&gt;&lt;div&gt;- status: String&lt;/div&gt;&lt;/div&gt;" style="text;strokeColor=none;fillColor=none;align=left;verticalAlign=top;spacingLeft=4;spacingRight=4;overflow=hidden;rotatable=0;points=[[0,0.5],[1,0.5]];portConstraint=eastwest;whiteSpace=wrap;html=1;" parent="9XXfqWWZfJPSa1Kgbe5z-13" vertex="1">
          <mxGeometry y="26" width="160" height="84" as="geometry" />
        </mxCell>
        <mxCell id="9XXfqWWZfJPSa1Kgbe5z-15" value="" style="line;strokeWidth=1;fillColor=none;align=left;verticalAlign=middle;spacingTop=-1;spacingLeft=3;spacingRight=3;rotatable=0;labelPosition=right;points=[];portConstraint=eastwest;strokeColor=inherit;" parent="9XXfqWWZfJPSa1Kgbe5z-13" vertex="1">
          <mxGeometry y="110" width="160" height="8" as="geometry" />
        </mxCell>
        <mxCell id="9XXfqWWZfJPSa1Kgbe5z-16" value="+ applyForAdmission()&lt;br&gt;+ trackApplicationStatus()" style="text;strokeColor=none;fillColor=none;align=left;verticalAlign=top;spacingLeft=4;spacingRight=4;overflow=hidden;rotatable=0;points=[[0,0.5],[1,0.5]];portConstraint=eastwest;whiteSpace=wrap;html=1;" parent="9XXfqWWZfJPSa1Kgbe5z-13" vertex="1">
          <mxGeometry y="118" width="160" height="42" as="geometry" />
        </mxCell>
        <mxCell id="9XXfqWWZfJPSa1Kgbe5z-17" value="Student" style="swimlane;fontStyle=1;align=center;verticalAlign=top;childLayout=stackLayout;horizontal=1;startSize=26;horizontalStack=0;resizeParent=1;resizeParentMax=0;resizeLast=0;collapsible=1;marginBottom=0;whiteSpace=wrap;html=1;" parent="1" vertex="1">
          <mxGeometry x="610" y="360" width="200" height="250" as="geometry" />
        </mxCell>
        <mxCell id="9XXfqWWZfJPSa1Kgbe5z-18" value="&lt;div&gt;&amp;nbsp;- studentId: String&lt;/div&gt;&lt;div&gt;&amp;nbsp;- name: String&lt;/div&gt;&lt;div&gt;&amp;nbsp;- email: String&lt;/div&gt;&lt;div&gt;&amp;nbsp;- semester: int&lt;/div&gt;&lt;div&gt;&amp;nbsp;- enrolledCourses:&amp;nbsp; &amp;nbsp; &amp;nbsp; &amp;nbsp; &amp;nbsp; &amp;nbsp; &amp;nbsp; List&amp;lt;Course&amp;gt;&lt;/div&gt;" style="text;strokeColor=none;fillColor=none;align=left;verticalAlign=top;spacingLeft=4;spacingRight=4;overflow=hidden;rotatable=0;points=[[0,0.5],[1,0.5]];portConstraint=eastwest;whiteSpace=wrap;html=1;" parent="9XXfqWWZfJPSa1Kgbe5z-17" vertex="1">
          <mxGeometry y="26" width="200" height="104" as="geometry" />
        </mxCell>
        <mxCell id="9XXfqWWZfJPSa1Kgbe5z-19" value="" style="line;strokeWidth=1;fillColor=none;align=left;verticalAlign=middle;spacingTop=-1;spacingLeft=3;spacingRight=3;rotatable=0;labelPosition=right;points=[];portConstraint=eastwest;strokeColor=inherit;" parent="9XXfqWWZfJPSa1Kgbe5z-17" vertex="1">
          <mxGeometry y="130" width="200" height="8" as="geometry" />
        </mxCell>
        <mxCell id="9XXfqWWZfJPSa1Kgbe5z-20" value="&lt;div&gt;&amp;nbsp;+ registerForCourse(courseId: String)&lt;/div&gt;&lt;div&gt;&amp;nbsp;+&lt;span style=&quot;background-color: transparent; color: light-dark(rgb(0, 0, 0), rgb(255, 255, 255));&quot;&gt;&amp;nbsp;viewEnrolledCourses()&lt;/span&gt;&lt;/div&gt;&lt;div&gt;&amp;nbsp;+ accessSyllabus(courseId: String)&lt;/div&gt;&lt;div&gt;&lt;br&gt;&lt;/div&gt;" style="text;strokeColor=none;fillColor=none;align=left;verticalAlign=top;spacingLeft=4;spacingRight=4;overflow=hidden;rotatable=0;points=[[0,0.5],[1,0.5]];portConstraint=eastwest;whiteSpace=wrap;html=1;" parent="9XXfqWWZfJPSa1Kgbe5z-17" vertex="1">
          <mxGeometry y="138" width="200" height="112" as="geometry" />
        </mxCell>
        <mxCell id="9XXfqWWZfJPSa1Kgbe5z-25" value="Faculty" style="swimlane;fontStyle=1;align=center;verticalAlign=top;childLayout=stackLayout;horizontal=1;startSize=26;horizontalStack=0;resizeParent=1;resizeParentMax=0;resizeLast=0;collapsible=1;marginBottom=0;whiteSpace=wrap;html=1;" parent="1" vertex="1">
          <mxGeometry x="123" y="657" width="200" height="180" as="geometry" />
        </mxCell>
        <mxCell id="9XXfqWWZfJPSa1Kgbe5z-26" value="&lt;div&gt;- facultyId: String&lt;/div&gt;&lt;div&gt;&amp;nbsp; &amp;nbsp;- name: String&lt;/div&gt;&lt;div&gt;&amp;nbsp; &amp;nbsp;- email: String&lt;/div&gt;&lt;div&gt;&amp;nbsp; &amp;nbsp;- department: String&lt;/div&gt;" style="text;strokeColor=none;fillColor=none;align=left;verticalAlign=top;spacingLeft=4;spacingRight=4;overflow=hidden;rotatable=0;points=[[0,0.5],[1,0.5]];portConstraint=eastwest;whiteSpace=wrap;html=1;" parent="9XXfqWWZfJPSa1Kgbe5z-25" vertex="1">
          <mxGeometry y="26" width="200" height="74" as="geometry" />
        </mxCell>
        <mxCell id="9XXfqWWZfJPSa1Kgbe5z-27" value="" style="line;strokeWidth=1;fillColor=none;align=left;verticalAlign=middle;spacingTop=-1;spacingLeft=3;spacingRight=3;rotatable=0;labelPosition=right;points=[];portConstraint=eastwest;strokeColor=inherit;" parent="9XXfqWWZfJPSa1Kgbe5z-25" vertex="1">
          <mxGeometry y="100" width="200" height="8" as="geometry" />
        </mxCell>
        <mxCell id="9XXfqWWZfJPSa1Kgbe5z-28" value="&lt;div&gt;+ createExamSchedule(courseId: String)&lt;/div&gt;&lt;div&gt;&amp;nbsp;+ manageTimetable()&lt;/div&gt;" style="text;strokeColor=none;fillColor=none;align=left;verticalAlign=top;spacingLeft=4;spacingRight=4;overflow=hidden;rotatable=0;points=[[0,0.5],[1,0.5]];portConstraint=eastwest;whiteSpace=wrap;html=1;" parent="9XXfqWWZfJPSa1Kgbe5z-25" vertex="1">
          <mxGeometry y="108" width="200" height="72" as="geometry" />
        </mxCell>
        <mxCell id="9XXfqWWZfJPSa1Kgbe5z-29" value="Course" style="swimlane;fontStyle=1;align=center;verticalAlign=top;childLayout=stackLayout;horizontal=1;startSize=26;horizontalStack=0;resizeParent=1;resizeParentMax=0;resizeLast=0;collapsible=1;marginBottom=0;whiteSpace=wrap;html=1;" parent="1" vertex="1">
          <mxGeometry x="280" y="427" width="160" height="180" as="geometry" />
        </mxCell>
        <mxCell id="9XXfqWWZfJPSa1Kgbe5z-30" value="&lt;div&gt;- courseId: String&lt;/div&gt;&lt;div&gt;- courseName: String&lt;/div&gt;&lt;div&gt;- syllabus: String&lt;/div&gt;&lt;div&gt;-creditHours: int&lt;/div&gt;&lt;div&gt;&lt;span style=&quot;background-color: transparent; color: light-dark(rgb(0, 0, 0), rgb(255, 255, 255));&quot;&gt;- faculty: Faculty&lt;/span&gt;&lt;/div&gt;&lt;div&gt;- enrolledStudents&lt;/div&gt;&lt;div&gt;&lt;br&gt;&lt;/div&gt;" style="text;strokeColor=none;fillColor=none;align=left;verticalAlign=top;spacingLeft=4;spacingRight=4;overflow=hidden;rotatable=0;points=[[0,0.5],[1,0.5]];portConstraint=eastwest;whiteSpace=wrap;html=1;" parent="9XXfqWWZfJPSa1Kgbe5z-29" vertex="1">
          <mxGeometry y="26" width="160" height="94" as="geometry" />
        </mxCell>
        <mxCell id="9XXfqWWZfJPSa1Kgbe5z-31" value="" style="line;strokeWidth=1;fillColor=none;align=left;verticalAlign=middle;spacingTop=-1;spacingLeft=3;spacingRight=3;rotatable=0;labelPosition=right;points=[];portConstraint=eastwest;strokeColor=inherit;" parent="9XXfqWWZfJPSa1Kgbe5z-29" vertex="1">
          <mxGeometry y="120" width="160" height="8" as="geometry" />
        </mxCell>
        <mxCell id="9XXfqWWZfJPSa1Kgbe5z-32" value="+&amp;nbsp;getCourseDetails()&lt;div&gt;+ addstudents()&lt;/div&gt;&lt;div&gt;+ removestudents()&lt;/div&gt;" style="text;strokeColor=none;fillColor=none;align=left;verticalAlign=top;spacingLeft=4;spacingRight=4;overflow=hidden;rotatable=0;points=[[0,0.5],[1,0.5]];portConstraint=eastwest;whiteSpace=wrap;html=1;" parent="9XXfqWWZfJPSa1Kgbe5z-29" vertex="1">
          <mxGeometry y="128" width="160" height="52" as="geometry" />
        </mxCell>
        <mxCell id="9XXfqWWZfJPSa1Kgbe5z-33" value="Timetable" style="swimlane;fontStyle=1;align=center;verticalAlign=top;childLayout=stackLayout;horizontal=1;startSize=26;horizontalStack=0;resizeParent=1;resizeParentMax=0;resizeLast=0;collapsible=1;marginBottom=0;whiteSpace=wrap;html=1;" parent="1" vertex="1">
          <mxGeometry x="334" y="707" width="160" height="170" as="geometry" />
        </mxCell>
        <mxCell id="9XXfqWWZfJPSa1Kgbe5z-34" value="&lt;div&gt;- timetableId: String&lt;/div&gt;&lt;div&gt;&amp;nbsp; &amp;nbsp;- semester: int&lt;/div&gt;&lt;div&gt;&amp;nbsp; &amp;nbsp;- schedules: Map&amp;lt;String, List&amp;lt;String&amp;gt;&amp;gt; (e.g., { &quot;Monday&quot;: [&quot;CS101-10AM&quot;] })&lt;/div&gt;" style="text;strokeColor=none;fillColor=none;align=left;verticalAlign=top;spacingLeft=4;spacingRight=4;overflow=hidden;rotatable=0;points=[[0,0.5],[1,0.5]];portConstraint=eastwest;whiteSpace=wrap;html=1;" parent="9XXfqWWZfJPSa1Kgbe5z-33" vertex="1">
          <mxGeometry y="26" width="160" height="94" as="geometry" />
        </mxCell>
        <mxCell id="9XXfqWWZfJPSa1Kgbe5z-35" value="" style="line;strokeWidth=1;fillColor=none;align=left;verticalAlign=middle;spacingTop=-1;spacingLeft=3;spacingRight=3;rotatable=0;labelPosition=right;points=[];portConstraint=eastwest;strokeColor=inherit;" parent="9XXfqWWZfJPSa1Kgbe5z-33" vertex="1">
          <mxGeometry y="120" width="160" height="8" as="geometry" />
        </mxCell>
        <mxCell id="9XXfqWWZfJPSa1Kgbe5z-36" value="+ getTimetable(semester: int)" style="text;strokeColor=none;fillColor=none;align=left;verticalAlign=top;spacingLeft=4;spacingRight=4;overflow=hidden;rotatable=0;points=[[0,0.5],[1,0.5]];portConstraint=eastwest;whiteSpace=wrap;html=1;" parent="9XXfqWWZfJPSa1Kgbe5z-33" vertex="1">
          <mxGeometry y="128" width="160" height="42" as="geometry" />
        </mxCell>
        <mxCell id="9XXfqWWZfJPSa1Kgbe5z-37" value="Exam" style="swimlane;fontStyle=1;align=center;verticalAlign=top;childLayout=stackLayout;horizontal=1;startSize=26;horizontalStack=0;resizeParent=1;resizeParentMax=0;resizeLast=0;collapsible=1;marginBottom=0;whiteSpace=wrap;html=1;" parent="1" vertex="1">
          <mxGeometry x="530" y="707" width="220" height="280" as="geometry" />
        </mxCell>
        <mxCell id="9XXfqWWZfJPSa1Kgbe5z-38" value="&lt;div&gt;&amp;nbsp;- examId: String&lt;/div&gt;&lt;div&gt;&amp;nbsp; &amp;nbsp;- course: Course&lt;/div&gt;&lt;div&gt;&amp;nbsp; &amp;nbsp;- examType: String (e.g., &quot;Theory&quot;, &quot;Practical&quot;)&lt;/div&gt;&lt;div&gt;&amp;nbsp; &amp;nbsp;- examDate: Date&lt;/div&gt;&lt;div&gt;&amp;nbsp; &amp;nbsp;- results: Map&amp;lt;Student, String&amp;gt; (e.g., {&quot;StudentA&quot;: &quot;Pass&quot;})&lt;/div&gt;" style="text;strokeColor=none;fillColor=none;align=left;verticalAlign=top;spacingLeft=4;spacingRight=4;overflow=hidden;rotatable=0;points=[[0,0.5],[1,0.5]];portConstraint=eastwest;whiteSpace=wrap;html=1;" parent="9XXfqWWZfJPSa1Kgbe5z-37" vertex="1">
          <mxGeometry y="26" width="220" height="124" as="geometry" />
        </mxCell>
        <mxCell id="9XXfqWWZfJPSa1Kgbe5z-39" value="" style="line;strokeWidth=1;fillColor=none;align=left;verticalAlign=middle;spacingTop=-1;spacingLeft=3;spacingRight=3;rotatable=0;labelPosition=right;points=[];portConstraint=eastwest;strokeColor=inherit;" parent="9XXfqWWZfJPSa1Kgbe5z-37" vertex="1">
          <mxGeometry y="150" width="220" height="8" as="geometry" />
        </mxCell>
        <mxCell id="9XXfqWWZfJPSa1Kgbe5z-40" value="&lt;div&gt;&amp;nbsp;+ scheduleExam(courseId: String, examType: String, examDate: Date)&lt;/div&gt;&lt;div&gt;&amp;nbsp;+ getExamSchedule(studentId: String)&lt;/div&gt;&lt;div&gt;&amp;nbsp;+ viewResults(studentId: String)&lt;/div&gt;" style="text;strokeColor=none;fillColor=none;align=left;verticalAlign=top;spacingLeft=4;spacingRight=4;overflow=hidden;rotatable=0;points=[[0,0.5],[1,0.5]];portConstraint=eastwest;whiteSpace=wrap;html=1;" parent="9XXfqWWZfJPSa1Kgbe5z-37" vertex="1">
          <mxGeometry y="158" width="220" height="122" as="geometry" />
        </mxCell>
        <mxCell id="9XXfqWWZfJPSa1Kgbe5z-41" value="Admission" style="swimlane;fontStyle=1;align=center;verticalAlign=top;childLayout=stackLayout;horizontal=1;startSize=26;horizontalStack=0;resizeParent=1;resizeParentMax=0;resizeLast=0;collapsible=1;marginBottom=0;whiteSpace=wrap;html=1;" parent="1" vertex="1">
          <mxGeometry x="380" y="190" width="160" height="170" as="geometry" />
        </mxCell>
        <mxCell id="9XXfqWWZfJPSa1Kgbe5z-42" value="&lt;div&gt;- admissionId: String&lt;/div&gt;&lt;div&gt;- applicant: Applicant&lt;/div&gt;&lt;div&gt;- applicationDate: Date&lt;/div&gt;&lt;div&gt;- status: String&lt;/div&gt;&lt;div&gt;- documents: List&amp;lt;Document&amp;gt;&lt;/div&gt;" style="text;strokeColor=none;fillColor=none;align=left;verticalAlign=top;spacingLeft=4;spacingRight=4;overflow=hidden;rotatable=0;points=[[0,0.5],[1,0.5]];portConstraint=eastwest;whiteSpace=wrap;html=1;" parent="9XXfqWWZfJPSa1Kgbe5z-41" vertex="1">
          <mxGeometry y="26" width="160" height="94" as="geometry" />
        </mxCell>
        <mxCell id="9XXfqWWZfJPSa1Kgbe5z-43" value="" style="line;strokeWidth=1;fillColor=none;align=left;verticalAlign=middle;spacingTop=-1;spacingLeft=3;spacingRight=3;rotatable=0;labelPosition=right;points=[];portConstraint=eastwest;strokeColor=inherit;" parent="9XXfqWWZfJPSa1Kgbe5z-41" vertex="1">
          <mxGeometry y="120" width="160" height="8" as="geometry" />
        </mxCell>
        <mxCell id="9XXfqWWZfJPSa1Kgbe5z-44" value="+&amp;nbsp;&lt;span style=&quot;background-color: transparent;&quot;&gt;updateAdmissionStatus(applicantId: String, status: String)&lt;/span&gt;&lt;div&gt;&lt;span style=&quot;background-color: transparent; color: light-dark(rgb(0, 0, 0), rgb(255, 255, 255));&quot;&gt;&lt;br&gt;&lt;/span&gt;&lt;/div&gt;" style="text;strokeColor=none;fillColor=none;align=left;verticalAlign=top;spacingLeft=4;spacingRight=4;overflow=hidden;rotatable=0;points=[[0,0.5],[1,0.5]];portConstraint=eastwest;whiteSpace=wrap;html=1;" parent="9XXfqWWZfJPSa1Kgbe5z-41" vertex="1">
          <mxGeometry y="128" width="160" height="42" as="geometry" />
        </mxCell>
        <mxCell id="9XXfqWWZfJPSa1Kgbe5z-45" value="" style="line;strokeWidth=1;fillColor=none;align=left;verticalAlign=middle;spacingTop=-1;spacingLeft=3;spacingRight=3;rotatable=0;labelPosition=right;points=[];portConstraint=eastwest;strokeColor=inherit;" parent="1" vertex="1">
          <mxGeometry x="300" y="313" width="80" height="8" as="geometry" />
        </mxCell>
        <mxCell id="9XXfqWWZfJPSa1Kgbe5z-46" value="1" style="text;align=center;fontStyle=1;verticalAlign=middle;spacingLeft=3;spacingRight=3;strokeColor=none;rotatable=0;points=[[0,0.5],[1,0.5]];portConstraint=eastwest;html=1;" parent="1" vertex="1">
          <mxGeometry x="270" y="295" width="80" height="26" as="geometry" />
        </mxCell>
        <mxCell id="9XXfqWWZfJPSa1Kgbe5z-47" value="1" style="text;align=center;fontStyle=1;verticalAlign=middle;spacingLeft=3;spacingRight=3;strokeColor=none;rotatable=0;points=[[0,0.5],[1,0.5]];portConstraint=eastwest;html=1;" parent="1" vertex="1">
          <mxGeometry x="334" y="295" width="80" height="26" as="geometry" />
        </mxCell>
        <mxCell id="9XXfqWWZfJPSa1Kgbe5z-49" value="0..*" style="text;align=center;fontStyle=1;verticalAlign=middle;spacingLeft=3;spacingRight=3;strokeColor=none;rotatable=0;points=[[0,0.5],[1,0.5]];portConstraint=eastwest;html=1;" parent="1" vertex="1">
          <mxGeometry x="790" y="530" width="80" height="26" as="geometry" />
        </mxCell>
        <mxCell id="9XXfqWWZfJPSa1Kgbe5z-50" value="" style="line;strokeWidth=1;fillColor=none;align=left;verticalAlign=middle;spacingTop=-1;spacingLeft=3;spacingRight=3;rotatable=0;labelPosition=right;points=[];portConstraint=eastwest;strokeColor=inherit;" parent="1" vertex="1">
          <mxGeometry x="440" y="502" width="170" height="8" as="geometry" />
        </mxCell>
        <mxCell id="9XXfqWWZfJPSa1Kgbe5z-58" value="" style="endArrow=none;html=1;rounded=0;exitX=0.5;exitY=0;exitDx=0;exitDy=0;entryX=0.528;entryY=0.993;entryDx=0;entryDy=0;entryPerimeter=0;" parent="1" source="9XXfqWWZfJPSa1Kgbe5z-25" target="9XXfqWWZfJPSa1Kgbe5z-32" edge="1">
          <mxGeometry width="50" height="50" relative="1" as="geometry">
            <mxPoint x="480" y="567" as="sourcePoint" />
            <mxPoint x="530" y="517" as="targetPoint" />
          </mxGeometry>
        </mxCell>
        <mxCell id="9XXfqWWZfJPSa1Kgbe5z-59" value="1" style="text;strokeColor=none;fillColor=none;align=left;verticalAlign=middle;spacingLeft=4;spacingRight=4;overflow=hidden;points=[[0,0.5],[1,0.5]];portConstraint=eastwest;rotatable=0;whiteSpace=wrap;html=1;" parent="1" vertex="1">
          <mxGeometry x="203" y="627" width="80" height="30" as="geometry" />
        </mxCell>
        <mxCell id="9XXfqWWZfJPSa1Kgbe5z-61" value="" style="endArrow=none;html=1;rounded=0;exitX=0.312;exitY=-0.007;exitDx=0;exitDy=0;exitPerimeter=0;entryX=0.56;entryY=1.002;entryDx=0;entryDy=0;entryPerimeter=0;" parent="1" source="9XXfqWWZfJPSa1Kgbe5z-33" target="9XXfqWWZfJPSa1Kgbe5z-32" edge="1">
          <mxGeometry width="50" height="50" relative="1" as="geometry">
            <mxPoint x="370" y="717" as="sourcePoint" />
            <mxPoint x="370" y="610" as="targetPoint" />
          </mxGeometry>
        </mxCell>
        <mxCell id="9XXfqWWZfJPSa1Kgbe5z-62" value="" style="endArrow=none;html=1;rounded=0;entryX=0.601;entryY=0.977;entryDx=0;entryDy=0;entryPerimeter=0;exitX=0.072;exitY=-0.003;exitDx=0;exitDy=0;exitPerimeter=0;" parent="1" source="9XXfqWWZfJPSa1Kgbe5z-37" target="9XXfqWWZfJPSa1Kgbe5z-32" edge="1">
          <mxGeometry width="50" height="50" relative="1" as="geometry">
            <mxPoint x="537" y="704" as="sourcePoint" />
            <mxPoint x="420" y="667" as="targetPoint" />
          </mxGeometry>
        </mxCell>
        <mxCell id="6nayjnVoXShSyE2c5qGC-1" value="1" style="text;strokeColor=none;fillColor=none;align=left;verticalAlign=middle;spacingLeft=4;spacingRight=4;overflow=hidden;points=[[0,0.5],[1,0.5]];portConstraint=eastwest;rotatable=0;whiteSpace=wrap;html=1;" vertex="1" parent="1">
          <mxGeometry x="360" y="677" width="80" height="30" as="geometry" />
        </mxCell>
        <mxCell id="6nayjnVoXShSyE2c5qGC-4" value="0..*" style="text;align=center;fontStyle=1;verticalAlign=middle;spacingLeft=3;spacingRight=3;strokeColor=none;rotatable=0;points=[[0,0.5],[1,0.5]];portConstraint=eastwest;html=1;" vertex="1" parent="1">
          <mxGeometry x="550" y="417" width="80" height="26" as="geometry" />
        </mxCell>
        <mxCell id="6nayjnVoXShSyE2c5qGC-5" value="1" style="text;strokeColor=none;fillColor=none;align=left;verticalAlign=middle;spacingLeft=4;spacingRight=4;overflow=hidden;points=[[0,0.5],[1,0.5]];portConstraint=eastwest;rotatable=0;whiteSpace=wrap;html=1;" vertex="1" parent="1">
          <mxGeometry x="300" y="377" width="80" height="30" as="geometry" />
        </mxCell>
        <mxCell id="6nayjnVoXShSyE2c5qGC-9" value="0..*" style="text;align=center;fontStyle=1;verticalAlign=middle;spacingLeft=3;spacingRight=3;strokeColor=none;rotatable=0;points=[[0,0.5],[1,0.5]];portConstraint=eastwest;html=1;" vertex="1" parent="1">
          <mxGeometry x="420" y="485" width="80" height="26" as="geometry" />
        </mxCell>
        <mxCell id="6nayjnVoXShSyE2c5qGC-10" value="0..*" style="text;align=center;fontStyle=1;verticalAlign=middle;spacingLeft=3;spacingRight=3;strokeColor=none;rotatable=0;points=[[0,0.5],[1,0.5]];portConstraint=eastwest;html=1;" vertex="1" parent="1">
          <mxGeometry x="520" y="681" width="80" height="26" as="geometry" />
        </mxCell>
        <mxCell id="6nayjnVoXShSyE2c5qGC-11" value="1..*" style="text;align=center;fontStyle=1;verticalAlign=middle;spacingLeft=3;spacingRight=3;strokeColor=none;rotatable=0;points=[[0,0.5],[1,0.5]];portConstraint=eastwest;html=1;" vertex="1" parent="1">
          <mxGeometry x="390" y="610" width="80" height="26" as="geometry" />
        </mxCell>
        <mxCell id="6nayjnVoXShSyE2c5qGC-12" value="1..*" style="text;align=center;fontStyle=1;verticalAlign=middle;spacingLeft=3;spacingRight=3;strokeColor=none;rotatable=0;points=[[0,0.5],[1,0.5]];portConstraint=eastwest;html=1;" vertex="1" parent="1">
          <mxGeometry x="260" y="607" width="80" height="26" as="geometry" />
        </mxCell>
        <mxCell id="6nayjnVoXShSyE2c5qGC-14" value="Inheritance" style="endArrow=block;endSize=16;endFill=0;html=1;rounded=0;exitX=-0.006;exitY=-0.019;exitDx=0;exitDy=0;exitPerimeter=0;entryX=-0.006;entryY=0.622;entryDx=0;entryDy=0;entryPerimeter=0;" edge="1" parent="1" source="6nayjnVoXShSyE2c5qGC-5">
          <mxGeometry width="160" relative="1" as="geometry">
            <mxPoint x="299.99999999999983" y="348.53999999999996" as="sourcePoint" />
            <mxPoint x="611.84" y="407" as="targetPoint" />
          </mxGeometry>
        </mxCell>
        <mxCell id="6nayjnVoXShSyE2c5qGC-20" value="Result" style="swimlane;fontStyle=1;align=center;verticalAlign=top;childLayout=stackLayout;horizontal=1;startSize=26;horizontalStack=0;resizeParent=1;resizeParentMax=0;resizeLast=0;collapsible=1;marginBottom=0;whiteSpace=wrap;html=1;" vertex="1" parent="1">
          <mxGeometry x="930" y="585" width="160" height="160" as="geometry" />
        </mxCell>
        <mxCell id="6nayjnVoXShSyE2c5qGC-21" value="- resultId: String&lt;br&gt;- student: String&lt;br&gt;- exam: String&lt;br&gt;- score: Float&lt;div&gt;- grade: String&lt;/div&gt;" style="text;strokeColor=none;fillColor=none;align=left;verticalAlign=top;spacingLeft=4;spacingRight=4;overflow=hidden;rotatable=0;points=[[0,0.5],[1,0.5]];portConstraint=eastwest;whiteSpace=wrap;html=1;" vertex="1" parent="6nayjnVoXShSyE2c5qGC-20">
          <mxGeometry y="26" width="160" height="84" as="geometry" />
        </mxCell>
        <mxCell id="6nayjnVoXShSyE2c5qGC-22" value="" style="line;strokeWidth=1;fillColor=none;align=left;verticalAlign=middle;spacingTop=-1;spacingLeft=3;spacingRight=3;rotatable=0;labelPosition=right;points=[];portConstraint=eastwest;strokeColor=inherit;" vertex="1" parent="6nayjnVoXShSyE2c5qGC-20">
          <mxGeometry y="110" width="160" height="8" as="geometry" />
        </mxCell>
        <mxCell id="6nayjnVoXShSyE2c5qGC-23" value="+ Calculategrade()&lt;br&gt;+ getResultDetail()" style="text;strokeColor=none;fillColor=none;align=left;verticalAlign=top;spacingLeft=4;spacingRight=4;overflow=hidden;rotatable=0;points=[[0,0.5],[1,0.5]];portConstraint=eastwest;whiteSpace=wrap;html=1;" vertex="1" parent="6nayjnVoXShSyE2c5qGC-20">
          <mxGeometry y="118" width="160" height="42" as="geometry" />
        </mxCell>
        <mxCell id="6nayjnVoXShSyE2c5qGC-27" value="" style="endArrow=none;html=1;rounded=0;entryX=-0.019;entryY=0.679;entryDx=0;entryDy=0;entryPerimeter=0;" edge="1" parent="1" target="6nayjnVoXShSyE2c5qGC-21">
          <mxGeometry width="50" height="50" relative="1" as="geometry">
            <mxPoint x="750" y="850" as="sourcePoint" />
            <mxPoint x="800" y="800" as="targetPoint" />
          </mxGeometry>
        </mxCell>
        <mxCell id="6nayjnVoXShSyE2c5qGC-93" value="" style="endArrow=none;html=1;rounded=0;exitX=1;exitY=0.5;exitDx=0;exitDy=0;entryX=0.006;entryY=0.19;entryDx=0;entryDy=0;entryPerimeter=0;" edge="1" parent="1" source="9XXfqWWZfJPSa1Kgbe5z-20" target="6nayjnVoXShSyE2c5qGC-21">
          <mxGeometry width="50" height="50" relative="1" as="geometry">
            <mxPoint x="950" y="710" as="sourcePoint" />
            <mxPoint x="1000" y="660" as="targetPoint" />
          </mxGeometry>
        </mxCell>
        <mxCell id="6nayjnVoXShSyE2c5qGC-94" value="0..*" style="text;align=center;fontStyle=1;verticalAlign=middle;spacingLeft=3;spacingRight=3;strokeColor=none;rotatable=0;points=[[0,0.5],[1,0.5]];portConstraint=eastwest;html=1;" vertex="1" parent="1">
          <mxGeometry x="550" y="484" width="80" height="26" as="geometry" />
        </mxCell>
        <mxCell id="6nayjnVoXShSyE2c5qGC-95" value="1" style="text;strokeColor=none;fillColor=none;align=left;verticalAlign=middle;spacingLeft=4;spacingRight=4;overflow=hidden;points=[[0,0.5],[1,0.5]];portConstraint=eastwest;rotatable=0;whiteSpace=wrap;html=1;" vertex="1" parent="1">
          <mxGeometry x="900" y="647" width="80" height="30" as="geometry" />
        </mxCell>
        <mxCell id="6nayjnVoXShSyE2c5qGC-97" value="1" style="text;strokeColor=none;fillColor=none;align=left;verticalAlign=middle;spacingLeft=4;spacingRight=4;overflow=hidden;points=[[0,0.5],[1,0.5]];portConstraint=eastwest;rotatable=0;whiteSpace=wrap;html=1;" vertex="1" parent="1">
          <mxGeometry x="750" y="790" width="80" height="30" as="geometry" />
        </mxCell>
        <mxCell id="6nayjnVoXShSyE2c5qGC-98" value="1" style="text;strokeColor=none;fillColor=none;align=left;verticalAlign=middle;spacingLeft=4;spacingRight=4;overflow=hidden;points=[[0,0.5],[1,0.5]];portConstraint=eastwest;rotatable=0;whiteSpace=wrap;html=1;" vertex="1" parent="1">
          <mxGeometry x="910" y="590" width="80" height="30" as="geometry" />
        </mxCell>
        <mxCell id="6nayjnVoXShSyE2c5qGC-99" value="User" style="swimlane;fontStyle=1;align=center;verticalAlign=top;childLayout=stackLayout;horizontal=1;startSize=26;horizontalStack=0;resizeParent=1;resizeParentMax=0;resizeLast=0;collapsible=1;marginBottom=0;whiteSpace=wrap;html=1;" vertex="1" parent="1">
          <mxGeometry x="390" y="-40" width="160" height="170" as="geometry" />
        </mxCell>
        <mxCell id="6nayjnVoXShSyE2c5qGC-100" value="- user id: String&lt;br&gt;- name: String&lt;br&gt;- email: String&lt;br&gt;- passworld: string&lt;br&gt;- role: String" style="text;strokeColor=none;fillColor=none;align=left;verticalAlign=top;spacingLeft=4;spacingRight=4;overflow=hidden;rotatable=0;points=[[0,0.5],[1,0.5]];portConstraint=eastwest;whiteSpace=wrap;html=1;" vertex="1" parent="6nayjnVoXShSyE2c5qGC-99">
          <mxGeometry y="26" width="160" height="84" as="geometry" />
        </mxCell>
        <mxCell id="6nayjnVoXShSyE2c5qGC-101" value="" style="line;strokeWidth=1;fillColor=none;align=left;verticalAlign=middle;spacingTop=-1;spacingLeft=3;spacingRight=3;rotatable=0;labelPosition=right;points=[];portConstraint=eastwest;strokeColor=inherit;" vertex="1" parent="6nayjnVoXShSyE2c5qGC-99">
          <mxGeometry y="110" width="160" height="8" as="geometry" />
        </mxCell>
        <mxCell id="6nayjnVoXShSyE2c5qGC-102" value="+ login()&lt;div&gt;+ logout()&lt;/div&gt;&lt;div&gt;+ updateProfile()&lt;/div&gt;" style="text;strokeColor=none;fillColor=none;align=left;verticalAlign=top;spacingLeft=4;spacingRight=4;overflow=hidden;rotatable=0;points=[[0,0.5],[1,0.5]];portConstraint=eastwest;whiteSpace=wrap;html=1;" vertex="1" parent="6nayjnVoXShSyE2c5qGC-99">
          <mxGeometry y="118" width="160" height="52" as="geometry" />
        </mxCell>
        <mxCell id="6nayjnVoXShSyE2c5qGC-105" style="edgeStyle=orthogonalEdgeStyle;rounded=0;orthogonalLoop=1;jettySize=auto;html=1;entryX=0.576;entryY=-0.009;entryDx=0;entryDy=0;entryPerimeter=0;" edge="1" parent="1" source="6nayjnVoXShSyE2c5qGC-100" target="9XXfqWWZfJPSa1Kgbe5z-13">
          <mxGeometry relative="1" as="geometry" />
        </mxCell>
        <mxCell id="6nayjnVoXShSyE2c5qGC-106" style="edgeStyle=orthogonalEdgeStyle;rounded=0;orthogonalLoop=1;jettySize=auto;html=1;entryX=0.5;entryY=0;entryDx=0;entryDy=0;" edge="1" parent="1" source="6nayjnVoXShSyE2c5qGC-100" target="9XXfqWWZfJPSa1Kgbe5z-17">
          <mxGeometry relative="1" as="geometry" />
        </mxCell>
        <mxCell id="6nayjnVoXShSyE2c5qGC-108" style="edgeStyle=orthogonalEdgeStyle;rounded=0;orthogonalLoop=1;jettySize=auto;html=1;entryX=0;entryY=0.5;entryDx=0;entryDy=0;" edge="1" parent="1" source="6nayjnVoXShSyE2c5qGC-100" target="9XXfqWWZfJPSa1Kgbe5z-26">
          <mxGeometry relative="1" as="geometry">
            <mxPoint x="100" y="460" as="targetPoint" />
          </mxGeometry>
        </mxCell>
      </root>
    </mxGraphModel>
  </diagram>
</mxfile>
